<?xml version="1.0" encoding="utf-8"?>
<!-- Generator: Adobe Illustrator 28.2.0, SVG Export Plug-In . SVG Version: 6.00 Build 0)  -->
<svg version="1.1" id="Layer_1" xmlns="http://www.w3.org/2000/svg" xmlns:xlink="http://www.w3.org/1999/xlink" x="0px" y="0px"
	 viewBox="0 0 1632.93 875.08" style="enable-background:new 0 0 1632.93 875.08;" xml:space="preserve">
<style type="text/css">
	.st0{fill:#57BDB1;}
	.st1{fill:#B9E3DE;}
	.st2{fill:#23A99A;}
	.st3{fill:#F37423;}
</style>
<g>
	<g>
		<path class="st0" d="M384.35,648.2c0.75-0.91,1.75-0.63,2.7-0.54c0.17,0.22,0.12,0.4-0.11,0.54
			C386.07,648.2,385.21,648.2,384.35,648.2z"/>
		<path class="st1" d="M389.55,647.63c0,0.19-0.01,0.38-0.03,0.57h-2.59c0.01-0.11,0.04-0.22,0.07-0.32
			c0.01-0.08,0.03-0.15,0.04-0.22c0.8-0.01,1.59-0.03,2.39-0.03H389.55z"/>
		<path class="st2" d="M601.78,294.69c0,28.59,0.01,57.17-0.01,85.75c0,6.63-3.78,11.74-9.86,13.63c-1.27,0.39-2.54,0.47-3.83,0.47
			c-13.48,0-26.96,0.01-40.44,0c-2.77,0-2.77-0.03-2.79-2.86c-0.01-1.47,0-2.95,0-4.43c-1.61,1.27-2.52,2.74-3.83,3.89
			c-2.44,2.13-5.21,3.41-8.5,3.4c-13.8,0-27.61,0.01-41.41,0c-2.4-0.01-2.42-0.05-2.46-2.56c-0.01-1.57,0-3.13,0-5.44
			c-1.03,1.39-1.52,2.16-2.12,2.87c-2.62,3.1-5.87,5.02-10.04,5.13c-1.28,0.04-2.58,0.07-3.87,0.07H362.28
			c-3.04-0.03-3.05-0.03-3.08-2.94v-5.15c-1.03,1.42-1.52,2.2-2.1,2.91c-2.6,3.14-5.86,5.09-10.03,5.1
			c-13.8,0.04-27.61,0.03-41.41,0.01c-2.42-0.01-2.39-0.07-2.48-2.55c-0.05-1.48,0.28-3.01-0.31-4.45c-0.3,0.08-0.57,0.08-0.65,0.2
			c-3.24,4.95-7.81,6.95-13.72,6.92c-21.35-0.13-42.71-0.04-64.05-0.07c-1.93,0-3.87,0.08-5.78-0.53c-5.8-1.88-9.55-6.94-9.7-13.49
			c-0.13-5.71-0.07-11.43-0.09-17.15c-0.05-15.85-0.11-31.71-0.16-47.56c0-0.54-0.01-1.08-0.01-1.61c-0.01-0.89-0.35-1.46-1.32-1.44
			c-0.22,0-0.43-0.03-0.65-0.03c-7.99,0-15.98-0.27-23.94,0.04c-11.73,0.46-21.93,10.75-22.26,22.51c-0.28,9.7-0.01,19.4-0.07,29.12
			c-0.01,1.69,0.67,2.17,2.2,2.43c6.29,1.05,12.6,1.71,18.97,1.73c3.89,0,7.77-0.01,11.64-0.13c1.52-0.05,2.05,0.45,2.17,1.98
			c0.54,7.41,1.21,14.82,1.79,22.24c0.23,2.95,0.16,2.93-2.85,3.14c-17.03,1.24-33.79-0.31-50.29-4.71
			c-3.2-0.86-6.04-2.25-8.15-4.91c-1.81-2.27-2.93-4.82-2.93-7.72c0-15-0.57-30.02,0.22-44.97c1.03-19.86,11.39-34.12,28.92-43.22
			c6.92-3.59,14.37-5.14,22.16-5.14c11.43,0,22.86-0.04,34.29,0.01c8.49,0.04,15.94,6.38,17.26,14.65c0.3,1.79,0.23,3.66,0.23,5.49
			c0.09,19.31,0.16,38.6,0.23,57.91v0.97c0.05,2.93,0.05,2.93,3.13,2.94c2.7,0.03,5.4,0.01,8.08,0.01h25.57
			c3.16-0.01,3.17-0.03,3.17-3.17c0-23.3-0.01-46.59,0.01-69.89c0.01-5.3-0.78-4.56,4.63-4.6c6.57-0.04,13.16,0,19.73-0.01
			c3.56,0,3.28-0.07,3.28,3.41c0,23.4,0,46.81,0.01,70.22c0,4.53-0.35,4.03,3.93,4.03c7.23,0.03,14.45,0.01,21.67,0
			c2.97,0,3-0.03,3-3.02c0-23.52-0.01-47.04,0.01-70.54c0-4.61-0.61-4.06,4.16-4.09c6.69-0.03,13.37-0.01,20.06,0
			c3.33,0,3.16-0.19,3.16,3.16c0,23.3,0,46.61,0.01,69.89c0,5.3-0.51,4.57,4.7,4.6c7,0.04,14.02,0.01,21.02,0.01
			c3.16-0.01,3.17-0.03,3.17-3.18v-69.89c0-4.59,0-4.59,4.64-4.6c6.57,0,13.16,0,19.74,0.01c2.91,0,2.94,0.03,2.94,3.04
			c0.01,19.62,0,39.25,0,58.88c0,4.43-0.01,8.85,0.01,13.26c0.01,2.39,0.05,2.46,2.25,2.47c13.8,0.01,27.61,0,41.4,0.03
			c1.5,0,2.24-0.43,2.1-2.02c-0.08-0.74-0.01-1.5-0.01-2.25c0-23.3-0.01-46.61,0-69.89c0-3.85-0.36-3.51,3.45-3.51
			c7-0.01,14.01-0.01,21.02,0c2.94,0,2.96,0.03,2.97,3.04v70.54c0,4.45-0.32,4.07,3.93,4.09c7.23,0,14.45,0,21.68-0.01
			c3.14,0,3.17-0.01,3.17-3.22v-61.15c0-3.45-0.01-6.91,0-10.36c0.01-2.89,0.04-2.91,3.08-2.91c7.12-0.01,14.24-0.01,21.36,0
			c2.93,0,2.96,0.03,2.96,3.04v57.59c0,4.75-0.01,9.5,0.01,14.24c0.01,2.74,0.03,2.79,2.56,2.79c7.88,0.03,15.75,0.03,23.63,0
			c2.55-0.01,2.59-0.05,2.6-2.81c0.01-11.66,0-23.3,0-34.95V293.8c0-0.65-0.01-1.3,0.01-1.94c0.07-2.28,0.08-2.35,2.36-2.36
			c6.57-0.03,13.16,0,19.74-0.01C601.78,289.48,601.78,289.48,601.78,294.69z"/>
		<path class="st2" d="M698.17,270.49c0.05,1.73-0.63,2.23-2.27,2.19c-3.22-0.09-6.46-0.03-9.69-0.03h-38.47
			c-0.76,0-1.51-0.03-2.27,0c-1.09,0.03-1.54-0.5-1.54-1.57c0.01-3.87,0.03-7.76,0-11.64c0-1.13,0.58-1.48,1.62-1.47
			c1.71,0.03,3.43,0.01,5.53,0.01c-0.78-4.01-1.52-7.54-0.96-11.27c1.48-9.9,8.8-17.57,18.69-19.31c2.02-0.35,4.05-0.53,6.1-0.51
			c6.36,0.03,12.72,0.05,19.08-0.01c1.61-0.01,2.33,0.39,2.28,2.16c-0.11,3.44-0.09,6.89,0,10.34c0.04,1.69-0.54,2.27-2.23,2.24
			c-6.14-0.11-12.28-0.09-18.43-0.11c-1.39,0-2.81,0.01-4.18,0.22c-3.94,0.58-6.84,3.8-7.03,7.69c-0.19,3.91,2.09,6.94,6.03,8.11
			c1.58,0.47,3.18,0.45,4.8,0.45c6.79,0.01,13.57-0.01,20.36,0.01c2.47,0,2.51,0.04,2.52,2.48
			C698.17,263.81,698.08,267.15,698.17,270.49z"/>
		<path class="st2" d="M868.4,298.83c-0.18-5.92-4.12-10.98-9.74-12.76c-1.48-0.46-2.98-0.5-4.48-0.51
			c-13.48-0.2-26.96-0.38-40.43-0.53c-2.05-0.03-4.09,0.05-6.13,0.42c-12.08,2.16-21.95,8.12-29.82,17.39
			c-8.5,10.03-13.48,21.41-13.17,34.87c0.2,8.73,0.04,17.47,0.04,26.2c-0.01,3.22-0.03,3.2-3.16,3.25
			c-11.63,0.22-23.26-0.78-34.89-0.45c-0.11,0-0.22-0.01-0.32,0c-1.5,0.16-2.1-0.35-1.97-2c0.62-7.87,0.38-15.75,0.28-23.61
			c-0.15-12.72-1.24-25.42-1.21-38.15c0.01-10.5-7.5-17.78-18.08-17.8c-11.1-0.01-22.21,0.01-33.31-0.01
			c-9.27-0.01-17.97,2.17-25.89,6.98c-15.99,9.72-25.02,23.87-25.61,42.68c-0.46,14.34-0.09,28.7-0.13,43.04
			c-0.01,4.61,2.04,8.01,5.86,10.51c2.66,1.74,5.59,2.82,8.64,3.51c10.01,2.25,20.15,3.6,30.4,3.9c8.93,0.27,17.85,0.13,27.27-1.09
			c-2.32,7.38-4.91,13.98-9.09,19.82c-4.12,5.76-9.51,9.92-16.1,12.55c-5.07,2.02-10.35,2.87-15.77,3.05
			c-2.6,0.08-2.63,0.09-2.64,2.71c-0.01,7.43-0.01,14.88,0,22.32c0.01,2.63,0.05,2.74,2.73,2.62c3.98-0.18,7.95-0.43,11.9-1.05
			c20.35-3.16,35.88-13.4,46.15-31.34c4.97-8.68,8.03-18.09,10.43-27.76c0.8-3.24,0.77-3.28,4.21-3.24
			c6.79,0.07,13.59,0.12,20.37,0.13c36.77,0.12,73.54,0.07,110.32,0.04c5.82,0,9.7-3.05,12.08-8.19c1.25-2.71,1.34-5.61,1.34-8.55
			c-0.01-23.18-0.01-46.38-0.01-69.57C868.43,305.08,868.49,301.95,868.4,298.83z M696.71,362.68c-0.03,3.48-0.15,3.47-3.58,3.98
			c-11.55,1.74-23.15,2.27-34.8,1.3c-2.7-0.23-5.34-0.72-7.97-1.27c-2.37-0.51-2.44-0.53-2.46-2.89
			c-0.08-8.08-0.11-16.16-0.13-24.26c0-2.25,0.01-4.49,0.4-6.76c1.85-10.98,11.87-20.32,23.88-20.09
			c7.12,0.13,14.24,0.05,21.35,0.11c2.64,0.01,2.67,0.04,2.75,2.67c0.24,7.87,0.47,15.73,0.7,23.6h-0.12
			C696.74,346.93,696.78,354.81,696.71,362.68z M840.73,364.31c-0.01,2.81-0.04,2.83-2.87,2.83c-14.33,0.01-28.66,0.01-43,0
			c-2.67,0-2.71-0.04-2.71-2.64c-0.03-9.59-0.11-19.19,0.01-28.78c0.16-12.4,11.48-23.4,23.94-23.32c7.43,0.05,14.87,0.24,22.3,0.39
			c2.25,0.04,2.32,0.07,2.32,2.36c0.03,8.3,0.01,16.6,0.01,24.89C840.73,348.15,840.74,356.23,840.73,364.31z"/>
		<path class="st2" d="M880.65,600.71c0.01,1.48-0.4,2.27-2.01,2.1c-0.74-0.07-1.51-0.01-2.25-0.01H710.76
			c-1.71,0-3.43,0.07-5.14-0.39c-4.61-1.27-7.5-4.9-7.5-9.67c0-32.68,0.01-65.36,0.03-98.04c0.01-3.04,0.03-3.05,2.94-3.06
			c4.52-0.01,9.05,0,13.57,0c0.32,0,0.66,0.04,0.97,0c1.79-0.26,2.29,0.66,2.16,2.25c-0.07,0.76-0.01,1.51-0.01,2.27
			c0,27.61,0,55.21,0.01,82.82c0,4.4-0.5,3.9,4.03,3.91c9.27,0.01,18.54,0.01,27.81,0c2.6,0,2.64-0.04,2.64-2.71
			c0.01-16.18,0.01-32.36,0.01-48.52c0-0.76,0.05-1.52-0.01-2.27c-0.16-1.73,0.65-2.21,2.28-2.19c4.86,0.08,9.7,0.01,14.56,0.04
			c2.81,0,2.83,0.03,2.83,2.82c0.01,16.29,0.01,32.57,0.01,48.86c0,0.76,0.04,1.51,0,2.27c-0.08,1.24,0.46,1.78,1.69,1.71
			c0.65-0.04,1.3-0.01,1.94-0.01h73.43c3.48,0,3.51,0,3.25-3.4c-0.51-6.87-2.31-13.36-6.09-19.2c-3.89-6.03-9.27-10.13-16.06-12.39
			c-6.5-2.16-13.24-2.93-20.04-3.17c-3.78-0.15-7.56-0.05-11.32-0.14c-2.29-0.05-2.4-0.12-2.24-2.42
			c0.39-5.37,0.88-10.74,1.31-16.11c0.08-0.86,0.36-1.43,1.36-1.36c12.76,0.97,25.69,0.4,38.19,3.9
			c12.54,3.51,22.29,10.59,28.13,22.49c3.31,6.75,5.21,13.9,6.1,21.33c0.34,2.79,0.76,5.57,0.67,8.38
			c-0.04,1.47,0.43,2.27,2.02,2.09c0.43-0.05,0.86-0.01,1.3-0.01c5.01,0.03,5.01,0.03,5.01,5.21
			C880.62,592.31,880.58,596.5,880.65,600.71z"/>
		<path class="st2" d="M784.15,628.18c-0.12,5.95-4.8,10.42-10.88,10.36c-6.03-0.04-10.47-4.6-10.42-10.71
			c0.05-6.04,4.64-10.65,10.61-10.63C779.47,617.21,784.28,622.17,784.15,628.18z"/>
		<path class="st2" d="M759.5,627.97c-0.03,6-4.63,10.55-10.66,10.58c-6.07,0.04-10.59-4.45-10.62-10.51
			c-0.03-6.1,4.43-10.74,10.39-10.84C754.63,617.11,759.52,621.95,759.5,627.97z"/>
		<path class="st2" d="M681.41,563.65c0-8.84-0.09-17.68,0.03-26.51c0.11-6.83-5.8-13.02-12.98-12.76c-8.3,0.3-16.6,0.07-24.89,0.07
			c-2.5,0-4.94,0.26-7.38,0.77c-15.09,3.22-27.88,17.42-28.51,32.52c-0.47,11.29-0.15,22.63-0.15,33.95c0,2.42,1.05,4.36,2.89,5.91
			c1.5,1.27,3.22,2.13,5.07,2.77c3.17,1.09,6.48,1.51,9.77,2.06c16.07,2.71,31.97,2.02,47.74-2.02c5.94-1.52,8.45-4.72,8.47-10.86
			c0.01-8.62,0-17.24,0-25.88H681.41z M659.39,583.01c-9.65,1.39-19.3,1.75-28.97,0.31c-3.24-0.49-3.22-0.58-3.24-3.9
			c-0.03-5.71-0.08-11.43-0.07-17.14c0.04-10.73,7.66-18.27,18.39-18.27c4.43,0,8.84,0.01,13.25,0.05c2.78,0.01,2.81,0.04,2.81,2.89
			c0.03,5.51,0.01,11,0.01,16.5c0,5.6-0.04,11.2,0.03,16.8C661.62,581.92,661.24,582.74,659.39,583.01z"/>
		<path class="st2" d="M646.52,503.14c-0.04,6.02-4.6,10.51-10.69,10.5c-5.98-0.01-10.69-4.71-10.65-10.62
			c0.03-5.91,4.76-10.71,10.61-10.74C641.9,492.25,646.55,496.95,646.52,503.14z"/>
		<path class="st2" d="M671.12,503.12c-0.03,6.06-4.53,10.52-10.62,10.52c-6-0.01-10.62-4.59-10.66-10.58
			c-0.03-5.88,4.72-10.74,10.55-10.78C666.53,492.24,671.13,496.88,671.12,503.12z"/>
		<path class="st2" d="M554.05,591.58c0.32,7.35-5.51,11.28-11.25,11.25c-35.47-0.16-70.95-0.09-106.43-0.07
			c-4.66,0-3.75-0.59-4.98,3.93c-2.36,8.68-5.42,17.04-11.1,24.22c-6.87,8.66-15.87,13.74-26.58,15.96
			c-1.38,0.28-2.75,0.5-4.14,0.76c-0.04,0.03-0.08,0.04-0.12,0.05c-0.73,0.34-1.52,0.11-2.28,0.18h-0.01
			c-0.04,0-0.08,0.01-0.13,0.01c-0.89,0.08-1.82-0.28-2.66,0.32h-3.89c0.04-5.92,0.12-11.86,0.08-17.78
			c-0.01-1.62,0.43-2.23,2.16-2.29c17.11-0.65,24.94-10.63,28.74-23.05c2.08-6.73,2.89-13.68,3.32-20.7
			c0.82-13.37,0.05-26.73-0.22-40.09c-0.03-1.84-0.09-3.67-0.23-5.49c-0.09-1.28,0.15-2.08,1.67-2.06c5.49,0.03,11,0.04,16.49,0
			c1.55-0.01,1.69,0.85,1.71,2.06c0.18,13.47,1.17,26.93,0.72,40.43c-0.13,3.79-0.76,3.67,3.51,3.67c30.74,0,61.47,0.01,92.2,0
			c3.85,0,3.58,0.47,3.6-3.71c0.03-4.3,0.04-8.62-0.34-12.93c-0.39-4.33-1.65-5.65-5.86-6.31c-2.58-0.39-5.17-0.32-7.75-0.34
			c-14.88-0.05-29.77-0.07-44.65-0.11c-0.96,0-1.94,0.03-2.9-0.05c-7.42-0.61-12.31-5.52-12.87-12.93
			c-0.36-4.74,0.63-9.19,2.7-13.47c4.7-9.74,11.74-17.49,20.46-23.77c11.59-8.37,24.57-13.24,38.7-15.19
			c4.29-0.59,8.6-0.78,12.9-0.77c2.31,0,2.35,0.07,2.28,2.37c-0.15,4.95-0.34,9.9-0.53,14.87c-0.08,2.37-0.09,2.37-2.6,2.43
			c-11.71,0.26-22.84,2.86-33.15,8.53c-6.69,3.68-12.59,8.34-16.91,14.75c-0.49,0.72-0.94,1.44-1.38,2.2
			c-0.15,0.27-0.19,0.61-0.31,1.01c1.03,0.88,2.25,0.47,3.35,0.49c14.45,0.07,28.9,0.11,43.35,0.12c2.93,0,5.82,0.34,8.68,0.81
			c9.58,1.54,14.26,6.42,15.84,16.12c0.73,4.49,0.81,9.01,0.82,13.55C554.06,577.56,553.77,584.59,554.05,591.58z"/>
		<path class="st2" d="M373.35,553.94c-0.01-7.87-0.01-15.73,0-23.61c0-3.36,0.09-3.1-3.22-3.1c-4.32,0-8.64-0.01-12.94,0
			c-3.94,0.03-3.72-0.49-3.72,3.59v49.17c-0.01,2.86-0.04,2.9-2.77,2.9c-13.16,0.01-26.31,0.01-39.47,0c-2.48,0-2.48-0.05-2.54-2.47
			c-0.01-0.76,0-1.51,0-2.27c0-14.34,0.01-28.69-0.01-43.03c-0.03-6.75-3.82-10.61-10.59-10.74c-9.38-0.2-18.76-0.31-28.12-0.42
			c-1.3-0.03-2.6-0.01-3.87,0.16c-20.62,2.91-32.42,23.03-31.95,36.62c0.2,6.25,0.04,12.51,0.03,18.76c0,3.48,0.39,3.4-3.25,3.4
			c-7.33-0.01-14.67,0.01-21.99-0.01c-4.21-0.01-3.78,0.51-3.81-3.83c-0.11-13.8-0.31-27.61-0.12-41.4
			c0.11-8.03-6.83-13.57-13.2-13.3c-8.3,0.35-16.61,0.08-24.91,0.09c-1.84,0-3.66,0.04-5.48,0.39
			c-17.74,3.43-30.29,18.19-30.6,36.24c-0.15,9.59-0.07,19.19-0.01,28.79c0.04,5.49,2.69,8.88,7.92,10.4
			c5.09,1.47,10.27,2.46,15.53,2.98c6.87,0.69,13.75,1.19,20.66,0.53c2.36-0.22,2.35-0.28,2.17-2.5c-0.39-4.83-0.8-9.66-1.16-14.49
			c-0.22-2.78-0.2-2.81-3.04-2.81c-6.58,0-13.14-0.24-19.67-1.21c-2.39-0.36-2.46-0.38-2.48-2.83c-0.04-6.26-0.07-12.51-0.03-18.77
			c0.07-9.26,7.48-16.87,16.79-17.12c5.17-0.15,10.35,0.07,15.52-0.04c1.79-0.03,2.17,0.69,2.16,2.28
			c-0.03,6.37,0.01,12.72,0.05,19.09c0.05,8.84,0.24,17.68,0.18,26.51c-0.05,6.91,4.63,11.42,11.29,11.15
			c9.8-0.4,19.62-0.22,29.43-0.23c17.57-0.03,35.15-0.01,52.72-0.01h81.51c1.3,0,2.6,0.05,3.89-0.09c5.56-0.65,9.15-4.7,9.15-10.25
			C373.36,579.62,373.35,566.78,373.35,553.94z M288.75,563.73c0,5.61,0.01,11.21-0.01,16.83c-0.01,2.27-0.07,2.32-2.35,2.33
			c-10.03,0.01-20.05,0.01-30.08-0.01c-2.23,0-2.28-0.07-2.28-2.4c-0.03-6.46-0.11-12.94,0.01-19.4
			c0.16-9.88,7.77-17.22,17.64-17.16c4.95,0.04,9.92,0.16,14.87,0.12c1.73-0.03,2.24,0.58,2.23,2.24
			C288.71,552.08,288.75,557.91,288.75,563.73z"/>
		<path class="st2" d="M343.57,628.14c-0.07,5.99-4.66,10.44-10.75,10.4c-5.99-0.03-10.58-4.68-10.54-10.69
			c0.04-5.94,4.76-10.67,10.65-10.66C339.02,617.2,343.65,621.96,343.57,628.14z"/>
		<path class="st2" d="M368.21,628.08c-0.04,6.02-4.63,10.5-10.7,10.47c-5.98-0.01-10.63-4.67-10.62-10.62
			c0.01-5.91,4.75-10.7,10.61-10.73C363.59,617.17,368.26,621.91,368.21,628.08z"/>
		<path class="st2" d="M171.55,503.02c0.01,6.03-4.52,10.59-10.57,10.62c-6.03,0.01-10.73-4.55-10.78-10.48
			c-0.05-5.91,4.66-10.79,10.48-10.88C166.81,492.19,171.52,496.84,171.55,503.02z"/>
		<path class="st2" d="M196.13,503.01c0.03,6.09-4.43,10.59-10.5,10.63c-6.04,0.03-10.66-4.47-10.77-10.47
			c-0.11-5.87,4.61-10.79,10.44-10.89C191.45,492.17,196.12,496.8,196.13,503.01z"/>
		<path class="st2" d="M223.91,255.72c-0.01,8.3-6.38,14.56-14.82,14.55c-8.31,0-15.02-6.45-14.84-14.61
			c0.22-10.01,8.27-15,15.07-14.76C217.72,241.19,223.93,247.28,223.91,255.72z"/>
		<path class="st2" d="M189.61,255.69c-0.01,8.42-6.48,14.64-15.14,14.57c-8.07-0.05-14.65-6.54-14.55-14.59
			c0.15-9.94,8.3-15.27,15.04-14.73C183.37,241.01,189.63,247.31,189.61,255.69z"/>
	</g>
	<path class="st2" d="M1502.13,158.48c0-0.1-0.01-0.2-0.01-0.3c-1.12-0.02-2.23-0.05-3.35-0.05H943.98
		c-0.04,1.04-0.11,2.08-0.11,3.11c0,184.1,0,368.21,0.01,552.31c0,2-0.13,2.84,0.25,3.17h0.01c0.37,0.35,1.25,0.21,3.18,0.21
		c183.98,0.01,367.96,0.01,551.94,0.01c0.79,0,1.58-0.03,2.37-0.05h0.01c0.17,0,0.33-0.01,0.5-0.01c0-0.1,0-0.19,0.01-0.29v-0.01
		c0.02-0.86,0.05-1.72,0.05-2.58V161.05C1502.2,160.19,1502.16,159.34,1502.13,158.48z M991.71,202.78
		c154.34-0.01,308.67-0.01,463.01,0c3.32,0,3.16-0.62,3.16,3.24v462.86c0,3.9,0.27,3.35-3.31,3.35
		c-77.12,0.01-154.25,0.01-231.38,0.01s-154.25,0-231.38-0.01c-3.66,0-3.24,0.44-3.24-3.13c-0.01-154.37-0.01-308.74,0-463.11
		C988.57,202.33,988.11,202.78,991.71,202.78z"/>
	<path class="st3" d="M1426.82,501.43c-2.24,2.37-4.66,4.32-7.03,6.32c-24.48,20.6-52.09,35.68-82.09,46.53
		c-19.11,6.92-38.73,11.86-58.81,15.02c-12.16,1.92-24.37,3.19-36.67,3.86c-10.46,0.57-20.93,0.59-31.39,0.27
		c-12.14-0.36-24.22-1.49-36.26-3.17c-26.28-3.67-51.78-10.28-76.37-20.27c-25.55-10.39-49.17-24.05-70.37-41.79
		c-2.75-2.3-5.49-4.62-8.01-7.13c-0.05-0.83,0.59-1.17,0.99-1.61c9.79-10.65,19.6-21.29,29.4-31.93c0.22-0.23,0.46-0.44,0.65-0.7
		c0.63-0.85,1.19-0.75,1.94-0.06c1.87,1.73,3.79,3.43,5.75,5.06c19.4,16.2,41.23,28.13,64.84,36.93
		c17.33,6.46,35.18,10.95,53.44,13.79c10.18,1.58,20.43,2.58,30.73,3.12c8.71,0.46,17.42,0.57,26.12,0.26
		c38.9-1.38,76.28-9.34,111.5-26.32c17.58-8.48,33.82-19.02,48.36-32.09c0.29-0.27,0.6-0.52,1.13-0.99
		C1405.44,478.22,1416.09,489.79,1426.82,501.43z"/>
</g>
</svg>
